<svg version="1.1" xmlns="http://www.w3.org/2000/svg" xmlns:xlink="http://www.w3.org/1999/xlink" width="1361" height="471" viewBox="0 0 1361 471"><defs/><g transform="matrix(1,0,0,1,0,0)"><g><g><g><path fill="none" stroke="#d3d3d3" paint-order="fill stroke markers" d=" M 0 0 L 1200 0" stroke-miterlimit="10" stroke-opacity="0.8" stroke-dasharray="5"/></g><g><path fill="none" stroke="#d3d3d3" paint-order="fill stroke markers" d=" M 0 0 L 0 800" stroke-miterlimit="10" stroke-opacity="0.8" stroke-dasharray="5"/></g></g><g id="_DABF3B49-D2B6-4979-8949-832341F442A6" bpmn2nodeid="_DABF3B49-D2B6-4979-8949-832341F442A6" transform="matrix(1,0,0,1,375,239)"><g><path fill="none" stroke="none"/></g><g transform="matrix(0.125,0,0,0.125,0,0)"><g transform="matrix(1,0,0,1,0,0)"><path fill="#fef4ea" stroke="none" id="_DABF3B49-D2B6-4979-8949-832341F442A6?shapeType=BACKGROUND" paint-order="stroke fill markers" d=" M 0 0 M 224.4 4.3 C 216.4 4.3 208.4 7.3 202.3 13.399999999999999 L 13.5 202.2 C 1.3000000000000007 214.39999999999998 1.3000000000000007 234.2 13.5 246.39999999999998 L 202.2 435.09999999999997 C 208.29999999999998 441.2 216.39999999999998 444.2 224.29999999999998 444.2 C 232.2 444.2 240.29999999999998 441.2 246.39999999999998 435.09999999999997 L 435.09999999999997 246.39999999999998 C 447.29999999999995 234.2 447.29999999999995 214.39999999999998 435.09999999999997 202.2 L 246.5 13.4 C 240.4 7.3 232.4 4.3 224.4 4.3 L 224.4 4.3 Z"/></g><g><g transform="matrix(1,0,0,1,0,0)"><g transform="matrix(1,0,0,1,0,0)"><path fill="rgb(236,122,8)" stroke="none" id="_DABF3B49-D2B6-4979-8949-832341F442A6?shapeType=BORDER&amp;renderType=FILL" paint-order="stroke fill markers" d=" M 0 0 M 20.8 212.7 L 213.3 20.2 C 219.60000000000002 13.899999999999999 229.70000000000002 13.899999999999999 235.9 20.2 L 428.4 212.7 C 434.7 219 434.7 229.1 428.4 235.29999999999998 L 235.9 427.8 C 229.6 434.1 219.5 434.1 213.3 427.8 L 20.8 235.3 C 14.5 229.1 14.5 218.9 20.8 212.7 L 20.8 212.7 Z M 0 0 M 0 224 C 0 232.1 3.1 240.3 9.3 246.5 L 201.5 438.7 C 213.9 451.09999999999997 234.1 451.09999999999997 246.5 438.7 L 438.7 246.5 C 444.9 240.3 448 232.1 448 224 C 448 215.9 444.9 207.7 438.7 201.5 L 246.5 9.3 C 234.1 -3.0999999999999996 213.9 -3.0999999999999996 201.5 9.3 L 9.3 201.5 C 3.1 207.7 0 215.9 0 224 L 0 224 Z"/></g></g></g><g><g transform="matrix(1,0,0,1,0,0)"><g transform="matrix(1,0,0,1,0,0)"><path fill="#ec7a08" stroke="none" id="_DABF3B49-D2B6-4979-8949-832341F442A6undefined" paint-order="stroke fill markers" d=" M 0 0 M 298.2 269.2 C 298.2 272.59999999999997 297.09999999999997 275.3 294.7 277.7 L 277.7 294.7 C 275.3 297.09999999999997 272.59999999999997 298.2 269.2 298.2 C 265.8 298.2 263.09999999999997 297.09999999999997 260.7 294.7 L 224 258 L 187.2 294.8 C 184.79999999999998 297.2 182.1 298.3 178.7 298.3 C 175.29999999999998 298.3 172.6 297.2 170.2 294.8 L 153.2 277.8 C 150.79999999999998 275.40000000000003 149.7 272.7 149.7 269.3 C 149.7 265.90000000000003 150.79999999999998 263.2 153.2 260.8 L 190 224 L 153.2 187.2 C 150.79999999999998 184.79999999999998 149.7 182 149.7 178.7 C 149.7 175.29999999999998 150.79999999999998 172.5 153.2 170.2 L 170.2 153.2 C 172.6 150.79999999999998 175.29999999999998 149.7 178.7 149.7 C 182.1 149.7 184.79999999999998 150.79999999999998 187.2 153.2 L 224 190 L 260.8 153.2 C 263.2 150.79999999999998 265.90000000000003 149.7 269.3 149.7 C 272.7 149.7 275.40000000000003 150.79999999999998 277.8 153.2 L 294.8 170.2 C 297.2 172.5 298.3 175.29999999999998 298.3 178.7 C 298.3 182 297.2 184.79999999999998 294.8 187.2 L 258 224 L 294.8 260.8 C 297.1 263.1 298.2 265.9 298.2 269.2 Z"/></g></g></g></g><g transform="matrix(1,0,0,1,0,28)"><g/><g><path fill="none" stroke="black" id="_DABF3B49-D2B6-4979-8949-832341F442A6undefined" paint-order="fill stroke markers" d=" M 0 0 L 0 0" stroke-miterlimit="10" stroke-opacity="0.1" stroke-dasharray=""/></g></g></g><g id="_440322D1-6E7F-4C4E-95DC-AD2022DF492C" bpmn2nodeid="_440322D1-6E7F-4C4E-95DC-AD2022DF492C" transform="matrix(1,0,0,1,1122,239)"><g><path fill="none" stroke="none"/></g><g transform="matrix(0.125,0,0,0.125,0,0)"><g transform="matrix(1,0,0,1,0,0)"><path fill="#fef4ea" stroke="none" id="_440322D1-6E7F-4C4E-95DC-AD2022DF492C?shapeType=BACKGROUND" paint-order="stroke fill markers" d=" M 0 0 M 224.4 4.3 C 216.4 4.3 208.4 7.3 202.3 13.399999999999999 L 13.5 202.2 C 1.3000000000000007 214.39999999999998 1.3000000000000007 234.2 13.5 246.39999999999998 L 202.2 435.09999999999997 C 208.29999999999998 441.2 216.39999999999998 444.2 224.29999999999998 444.2 C 232.2 444.2 240.29999999999998 441.2 246.39999999999998 435.09999999999997 L 435.09999999999997 246.39999999999998 C 447.29999999999995 234.2 447.29999999999995 214.39999999999998 435.09999999999997 202.2 L 246.5 13.4 C 240.4 7.3 232.4 4.3 224.4 4.3 L 224.4 4.3 Z"/></g><g><g transform="matrix(1,0,0,1,0,0)"><g transform="matrix(1,0,0,1,0,0)"><path fill="#ec7a08" stroke="none" id="_440322D1-6E7F-4C4E-95DC-AD2022DF492C?shapeType=BORDER&amp;renderType=FILL" paint-order="stroke fill markers" d=" M 0 0 M 20.8 212.7 L 213.3 20.2 C 219.60000000000002 13.899999999999999 229.70000000000002 13.899999999999999 235.9 20.2 L 428.4 212.7 C 434.7 219 434.7 229.1 428.4 235.29999999999998 L 235.9 427.8 C 229.6 434.1 219.5 434.1 213.3 427.8 L 20.8 235.3 C 14.5 229.1 14.5 218.9 20.8 212.7 L 20.8 212.7 Z M 0 0 M 0 224 C 0 232.1 3.1 240.3 9.3 246.5 L 201.5 438.7 C 213.9 451.09999999999997 234.1 451.09999999999997 246.5 438.7 L 438.7 246.5 C 444.9 240.3 448 232.1 448 224 C 448 215.9 444.9 207.7 438.7 201.5 L 246.5 9.3 C 234.1 -3.0999999999999996 213.9 -3.0999999999999996 201.5 9.3 L 9.3 201.5 C 3.1 207.7 0 215.9 0 224 L 0 224 Z"/></g></g></g><g><g transform="matrix(1,0,0,1,0,0)"><g transform="matrix(1,0,0,1,0,0)"><path fill="#ec7a08" stroke="none" id="_440322D1-6E7F-4C4E-95DC-AD2022DF492Cundefined" paint-order="stroke fill markers" d=" M 0 0 M 312 212 L 312 236 C 312 239.4 310.9 242.1 308.5 244.5 C 306.1 246.9 303.4 248 300 248 L 248 248 L 248 300 C 248 303.4 246.9 306.1 244.5 308.5 C 242.1 310.9 239.4 312 236 312 L 212 312 C 208.6 312 205.9 310.9 203.5 308.5 C 201.1 306.1 200 303.4 200 300 L 200 248 L 148 248 C 144.6 248 141.9 246.9 139.5 244.5 C 137.1 242.1 136 239.4 136 236 L 136 212 C 136 208.6 137.1 205.9 139.5 203.5 C 141.9 201.1 144.6 200 148 200 L 200 200 L 200 148 C 200 144.6 201.1 141.9 203.5 139.5 C 205.9 137.1 208.6 136 212 136 L 236 136 C 239.4 136 242.1 137.1 244.5 139.5 C 246.9 141.9 248 144.6 248 148 L 248 200 L 300 200 C 303.4 200 306.1 201.1 308.5 203.5 C 310.9 205.9 312 208.6 312 212 Z"/></g></g></g></g><g transform="matrix(1,0,0,1,0,28)"><g/><g><path fill="none" stroke="black" id="_440322D1-6E7F-4C4E-95DC-AD2022DF492Cundefined" paint-order="fill stroke markers" d=" M 0 0 L 0 0" stroke-miterlimit="10" stroke-opacity="0.1" stroke-dasharray=""/></g></g></g><g id="_CCC7DB38-7B07-419B-AF02-139EB2C7F832" bpmn2nodeid="_CCC7DB38-7B07-419B-AF02-139EB2C7F832" transform="matrix(1,0,0,1,1255,239)"><g><path fill="none" stroke="none"/></g><g transform="matrix(0.125,0,0,0.125,0,0)"><g transform="matrix(1,0,0,1,0,0)"><path fill="#fce7e7" stroke="none" id="_CCC7DB38-7B07-419B-AF02-139EB2C7F832?shapeType=BACKGROUND" paint-order="stroke fill markers" d=" M 0 0 M 444 224 C 444 263.9 434.2 300.8 414.4 334.5 C 394.7 368.2 368 394.9 334.4 414.5 C 300.79999999999995 434.1 263.9 444 224 444 C 184.10000000000002 444 147.2 434.2 113.5 414.4 C 79.8 394.7 53.1 368 33.5 334.4 C 13.899999999999999 300.79999999999995 4 263.9 4 224 C 4 184.10000000000002 13.8 147.2 33.6 113.5 C 53.400000000000006 79.80000000000001 80.1 53.1 113.6 33.5 C 147.1 13.899999999999999 184.1 4 224 4 C 263.9 4 300.8 13.8 334.5 33.6 C 368.2 53.400000000000006 394.9 80.1 414.5 113.6 C 434.1 147.1 444 184.1 444 224 Z"/></g><g><g transform="matrix(1,0,0,1,0,0)"><g transform="matrix(1,0,0,1,0,0)"><path fill="#a30000" stroke="none" id="_CCC7DB38-7B07-419B-AF02-139EB2C7F832?shapeType=BORDER&amp;renderType=FILL" paint-order="stroke fill markers" d=" M 0 0 M 224 0 C 100.3 0 0 100.3 0 224 C 0 347.7 100.3 448 224 448 C 347.7 448 448 347.7 448 224 C 448 100.30000000000001 347.7 0 224 0 Z M 0 0 M 224 400 C 126.8 400 48 321.2 48 224 C 48 126.80000000000001 126.8 48 224 48 C 321.2 48 400 126.8 400 224 C 400 321.2 321.2 400 224 400 Z"/></g></g></g></g><g transform="matrix(1,0,0,1,0,56)"><g/><g><path fill="none" stroke="black" id="_CCC7DB38-7B07-419B-AF02-139EB2C7F832undefined" paint-order="fill stroke markers" d=" M 0 0 L 0 0" stroke-miterlimit="10" stroke-opacity="0.1" stroke-dasharray=""/></g></g></g><g id="_830779B4-596F-4A65-8DEB-EEF26A5342BC" bpmn2nodeid="_830779B4-596F-4A65-8DEB-EEF26A5342BC" transform="matrix(1,0,0,1,455,123)"><g><path fill="none" stroke="none"/></g><g transform="matrix(1,0,0,1,0,0)"><path fill="#ffffff" stroke="none" id="_830779B4-596F-4A65-8DEB-EEF26A5342BC?shapeType=BACKGROUND" paint-order="stroke fill markers" d=" M 2 0 L 152 0 L 152 0 A 2 2 0 0 1 154 2 L 154 100 L 154 100 A 2 2 0 0 1 152 102 L 2 102 L 2 102 A 2 2 0 0 1 0 100 L 0 2 L 0 2.0000000000000004 A 2 2 0 0 1 1.9999999999999996 0 Z"/></g><g transform="matrix(1,0,0,1,0,0)"><path fill="none" stroke="#000000" id="_830779B4-596F-4A65-8DEB-EEF26A5342BC?shapeType=BORDER&amp;renderType=STROKE" paint-order="fill stroke markers" d=" M 2 0 L 152 0 L 152 0 A 2 2 0 0 1 154 2 L 154 100 L 154 100 A 2 2 0 0 1 152 102 L 2 102 L 2 102 A 2 2 0 0 1 0 100 L 0 2 L 0 2.0000000000000004 A 2 2 0 0 1 1.9999999999999996 0 Z" stroke-miterlimit="10" stroke-width="1.5" stroke-dasharray=""/></g><g><g transform="matrix(0.06,0,0,0.06,9.4,9.4)"><g transform="matrix(1,0,0,1,0,0)"><path fill="#393f44" stroke="none" id="_830779B4-596F-4A65-8DEB-EEF26A5342BCundefined" paint-order="stroke fill markers" d=" M 0 0 M 197.3 130.2 C 194.4 127.29999999999998 189.60000000000002 127.29999999999998 186.70000000000002 130.2 L 130.20000000000002 186.7 C 127.30000000000001 189.6 127.30000000000001 194.39999999999998 130.20000000000002 197.29999999999998 L 186.70000000000002 253.79999999999998 C 188.10000000000002 255.29999999999998 190.10000000000002 255.99999999999997 192.00000000000003 255.99999999999997 C 193.90000000000003 255.99999999999997 195.90000000000003 255.29999999999998 197.30000000000004 253.69999999999996 C 200.20000000000005 250.79999999999995 200.20000000000005 245.99999999999997 197.30000000000004 243.09999999999997 L 146.2 192 L 197.29999999999998 140.8 C 200.2 137.9 200.2 133.1 197.3 130.2 Z"/></g><g transform="matrix(1,0,0,1,0,0)"><path fill="#393f44" stroke="none" id="_830779B4-596F-4A65-8DEB-EEF26A5342BCundefined" paint-order="stroke fill markers" d=" M 0 0 M 261.3 130.2 C 258.40000000000003 127.29999999999998 253.60000000000002 127.29999999999998 250.70000000000002 130.2 C 247.8 133.1 247.8 137.89999999999998 250.70000000000002 140.79999999999998 L 301.8 191.89999999999998 L 250.7 243 C 247.79999999999998 245.9 247.79999999999998 250.7 250.7 253.6 C 252.1 255.29999999999998 254.1 256 256 256 C 257.9 256 259.9 255.3 261.3 253.8 L 317.8 197.3 C 320.7 194.4 320.7 189.60000000000002 317.8 186.70000000000002 L 261.3 130.2 Z"/></g><g transform="matrix(1,0,0,1,0,0)"><path fill="#393f44" stroke="none" id="_830779B4-596F-4A65-8DEB-EEF26A5342BCundefined" paint-order="stroke fill markers" d=" M 0 0 M 400 32 C 400 32 152.8 32 128 32 C 62 32 64 96 64 96 L 64 288 L 1 288 C 1 288 -4 416 78 416 L 320 416 C 368 416 384 368 384 336 C 384 314.2 384 224.4 384 160 L 448 160 L 448 96 C 448 96 449 32 400 32 Z M 0 0 M 78 383.9 C 68.5 383.9 61.6 381.09999999999997 55.5 374.9 C 43.4 362.4 37.5 339.59999999999997 34.9 320 L 256.9 320 C 257.09999999999997 322.7 257.29999999999995 325.4 257.59999999999997 328.2 C 259.99999999999994 351.59999999999997 264.7 370.09999999999997 271.9 383.9 L 78 383.9 L 78 383.9 Z M 0 0 M 352 336 C 352 345.9 349.6 360.3 342.9 371 C 337.2 380.1 330.4 384 320 384 C 285 384 288 288 288 288 L 96 288 L 96 96 L 96 95.9 L 96 95.10000000000001 C 96 90.60000000000001 97.6 78.30000000000001 104.7 71.20000000000002 C 106.5 69.40000000000002 111.9 64.00000000000001 128 64.00000000000001 L 356.5 64.00000000000001 C 354.4 72.80000000000001 352.8 81.80000000000001 352.2 89.9 C 352.2 90.5 352.09999999999997 91.10000000000001 352.09999999999997 91.7 C 352.09999999999997 92 352.09999999999997 92.3 352.09999999999997 92.60000000000001 C 352 94.8 352 96 352 96 L 352 160 L 352 336 Z"/></g></g></g><g transform="matrix(1,0,0,1,0,43.5)"><g><text fill="#000000" stroke="none" font-family="Open Sans" font-size="12pt" font-style="normal" font-weight="normal" text-decoration="normal" x="77" y="12" text-anchor="middle" dominant-baseline="alphabetic" id="_830779B4-596F-4A65-8DEB-EEF26A5342BCundefined">          Approved          </text><path fill="none" stroke="none"/><text fill="none" stroke="#393f44" font-family="Open Sans" font-size="12pt" font-style="normal" font-weight="normal" text-decoration="normal" x="77" y="12" text-anchor="middle" dominant-baseline="alphabetic" stroke-miterlimit="10" stroke-dasharray="">          Approved          </text></g><g><path fill="none" stroke="black" id="_830779B4-596F-4A65-8DEB-EEF26A5342BCundefined" paint-order="fill stroke markers" d=" M 0 0 L 0 0" stroke-miterlimit="10" stroke-opacity="0.1" stroke-dasharray=""/></g></g></g><g id="_68FB6A24-E89D-4494-A02D-808268C3285E" bpmn2nodeid="_68FB6A24-E89D-4494-A02D-808268C3285E" transform="matrix(1,0,0,1,627,239)"><g><path fill="none" stroke="none"/></g><g transform="matrix(0.125,0,0,0.125,0,0)"><g transform="matrix(1,0,0,1,0,0)"><path fill="#fef4ea" stroke="none" id="_68FB6A24-E89D-4494-A02D-808268C3285E?shapeType=BACKGROUND" paint-order="stroke fill markers" d=" M 0 0 M 224.4 4.3 C 216.4 4.3 208.4 7.3 202.3 13.399999999999999 L 13.5 202.2 C 1.3000000000000007 214.39999999999998 1.3000000000000007 234.2 13.5 246.39999999999998 L 202.2 435.09999999999997 C 208.29999999999998 441.2 216.39999999999998 444.2 224.29999999999998 444.2 C 232.2 444.2 240.29999999999998 441.2 246.39999999999998 435.09999999999997 L 435.09999999999997 246.39999999999998 C 447.29999999999995 234.2 447.29999999999995 214.39999999999998 435.09999999999997 202.2 L 246.5 13.4 C 240.4 7.3 232.4 4.3 224.4 4.3 L 224.4 4.3 Z"/></g><g><g transform="matrix(1,0,0,1,0,0)"><g transform="matrix(1,0,0,1,0,0)"><path fill="#ec7a08" stroke="none" id="_68FB6A24-E89D-4494-A02D-808268C3285E?shapeType=BORDER&amp;renderType=FILL" paint-order="stroke fill markers" d=" M 0 0 M 20.8 212.7 L 213.3 20.2 C 219.60000000000002 13.899999999999999 229.70000000000002 13.899999999999999 235.9 20.2 L 428.4 212.7 C 434.7 219 434.7 229.1 428.4 235.29999999999998 L 235.9 427.8 C 229.6 434.1 219.5 434.1 213.3 427.8 L 20.8 235.3 C 14.5 229.1 14.5 218.9 20.8 212.7 L 20.8 212.7 Z M 0 0 M 0 224 C 0 232.1 3.1 240.3 9.3 246.5 L 201.5 438.7 C 213.9 451.09999999999997 234.1 451.09999999999997 246.5 438.7 L 438.7 246.5 C 444.9 240.3 448 232.1 448 224 C 448 215.9 444.9 207.7 438.7 201.5 L 246.5 9.3 C 234.1 -3.0999999999999996 213.9 -3.0999999999999996 201.5 9.3 L 9.3 201.5 C 3.1 207.7 0 215.9 0 224 L 0 224 Z"/></g></g></g><g><g transform="matrix(1,0,0,1,0,0)"><g transform="matrix(1,0,0,1,0,0)"><path fill="#ec7a08" stroke="none" id="_68FB6A24-E89D-4494-A02D-808268C3285Eundefined" paint-order="stroke fill markers" d=" M 0 0 M 298.2 269.2 C 298.2 272.59999999999997 297.09999999999997 275.3 294.7 277.7 L 277.7 294.7 C 275.3 297.09999999999997 272.59999999999997 298.2 269.2 298.2 C 265.8 298.2 263.09999999999997 297.09999999999997 260.7 294.7 L 224 258 L 187.2 294.8 C 184.79999999999998 297.2 182.1 298.3 178.7 298.3 C 175.29999999999998 298.3 172.6 297.2 170.2 294.8 L 153.2 277.8 C 150.79999999999998 275.40000000000003 149.7 272.7 149.7 269.3 C 149.7 265.90000000000003 150.79999999999998 263.2 153.2 260.8 L 190 224 L 153.2 187.2 C 150.79999999999998 184.79999999999998 149.7 182 149.7 178.7 C 149.7 175.29999999999998 150.79999999999998 172.5 153.2 170.2 L 170.2 153.2 C 172.6 150.79999999999998 175.29999999999998 149.7 178.7 149.7 C 182.1 149.7 184.79999999999998 150.79999999999998 187.2 153.2 L 224 190 L 260.8 153.2 C 263.2 150.79999999999998 265.90000000000003 149.7 269.3 149.7 C 272.7 149.7 275.40000000000003 150.79999999999998 277.8 153.2 L 294.8 170.2 C 297.2 172.5 298.3 175.29999999999998 298.3 178.7 C 298.3 182 297.2 184.79999999999998 294.8 187.2 L 258 224 L 294.8 260.8 C 297.1 263.1 298.2 265.9 298.2 269.2 Z"/></g></g></g></g><g transform="matrix(1,0,0,1,0,28)"><g/><g><path fill="none" stroke="black" id="_68FB6A24-E89D-4494-A02D-808268C3285Eundefined" paint-order="fill stroke markers" d=" M 0 0 L 0 0" stroke-miterlimit="10" stroke-opacity="0.1" stroke-dasharray=""/></g></g></g><g id="_D283245E-7D86-45B6-9823-7A3E526E3936" bpmn2nodeid="_D283245E-7D86-45B6-9823-7A3E526E3936" transform="matrix(1,0,0,1,455,319)"><g><path fill="none" stroke="none"/></g><g transform="matrix(1,0,0,1,0,0)"><path fill="#ffffff" stroke="none" id="_D283245E-7D86-45B6-9823-7A3E526E3936?shapeType=BACKGROUND" paint-order="stroke fill markers" d=" M 2 0 L 152 0 L 152 0 A 2 2 0 0 1 154 2 L 154 100 L 154 100 A 2 2 0 0 1 152 102 L 2 102 L 2 102 A 2 2 0 0 1 0 100 L 0 2 L 0 2.0000000000000004 A 2 2 0 0 1 1.9999999999999996 0 Z"/></g><g transform="matrix(1,0,0,1,0,0)"><path fill="none" stroke="rgb(0,136,206)" id="_D283245E-7D86-45B6-9823-7A3E526E3936?shapeType=BORDER&amp;renderType=STROKE" paint-order="fill stroke markers" d=" M 2 0 L 152 0 L 152 0 A 2 2 0 0 1 154 2 L 154 100 L 154 100 A 2 2 0 0 1 152 102 L 2 102 L 2 102 A 2 2 0 0 1 0 100 L 0 2 L 0 2.0000000000000004 A 2 2 0 0 1 1.9999999999999996 0 Z" stroke-miterlimit="10" stroke-width="1.5" stroke-dasharray=""/></g><g><g transform="matrix(0.06,0,0,0.06,9.4,9.4)"><g transform="matrix(1,0,0,1,0,0)"><path fill="#393f44" stroke="none" id="_D283245E-7D86-45B6-9823-7A3E526E3936undefined" paint-order="stroke fill markers" d=" M 0 0 M 16 445.2101 C 16 440.86867 18.784312 431.12906000000004 22.001325 424.21728 C 35.767643 394.6402 77.282944 359.28049 129 333.08362 C 144.51625 325.22398 157.34689 319.96394 167.80739 317.17416 C 171.93153 316.07426 175.72913 314.41389999999996 176.5251 313.36265 C 178.89361 310.23449999999997 180.91404 302.90781 181.72673 294.5 L 182.5 286.5 L 178.50715 283.45457 C 166.30327 274.14645 154.2837 251.67767 148.03953 226.5 C 145.61086 216.70715 145.05603000000002 215.46246 142.98364 215.1579 C 141.70332000000002 214.96974 138.08302 212.24302 134.93852 209.09852 C 123.23314 197.39314000000002 116.89146000000001 177.37556 121.43982000000001 166.48978 C 123.00204000000001 162.75088 128.15457 159.00970999999998 131.75 159.00374 C 134.44781 158.99974 134.47062 158.60296 132.91375 138.78796 C 130.92658 113.4962 134.27903 92.26542699999999 143.13217 74.075676 C 152.23162 55.379835 167.56889 42.88208 189.04934 36.659507000000005 C 210.20334 30.531504000000005 237.79666 30.531504000000005 258.95065999999997 36.659507000000005 C 300.04166 48.562968000000005 318.95842 83.80634 314.95504999999997 141 C 314.31982999999997 150.075 313.62402 157.78816 313.4088 158.14035 C 313.19359 158.49254000000002 314.57532 159.07295000000002 316.47931 159.43014000000002 C 328.92867 161.76565000000002 330.98619 177.01772000000003 321.49638 196.62092 C 316.90319 206.10912000000002 309.35724 214.50797 304.81732 215.18517000000003 C 303.02259 215.45289000000002 302.2931 217.14618000000002 299.94277999999997 226.50000000000003 C 296.65948 239.56693 294.47402 245.30522000000002 287.94764 257.99534000000006 C 282.49071999999995 268.60596000000004 273.03466 281.10922000000005 268.10756999999995 284.2288300000001 L 264.87062 286.27832000000006 L 265.51815999999997 292.88916000000006 C 266.34490999999997 301.32961000000006 268.63948999999997 309.8706000000001 270.87735999999995 312.83742000000007 C 272.06735 314.4150200000001 275.00244999999995 315.78963000000005 280.0630699999999 317.13941000000005 C 291.06929999999994 320.0750300000001 303.61700999999994 325.27420000000006 320.99999999999994 334.10171 C 369.81470999999993 358.89104000000003 410.84810999999996 393.75797 425.03216 422.5 C 429.06985999999995 430.68183 432 440.23198 432 445.2101 L 432 448 L 224 448 L 16 448 L 16 445.2101 Z"/></g></g></g><g transform="matrix(1,0,0,1,5.400000000000006,13.680000000000007)"><g transform="matrix(0.04,0,0,0.04,63.36,69.12)"><g transform="matrix(1,0,0,1,0,0)"><path fill="none" stroke="none"/></g></g></g><g transform="matrix(1,0,0,1,0,43.5)"><g><text fill="#000000" stroke="none" font-family="Open Sans" font-size="12pt" font-style="normal" font-weight="normal" text-decoration="normal" x="77" y="12" text-anchor="middle" dominant-baseline="alphabetic" id="_D283245E-7D86-45B6-9823-7A3E526E3936undefined">      HOA Approval      </text><path fill="none" stroke="none"/><text fill="none" stroke="#393f44" font-family="Open Sans" font-size="12pt" font-style="normal" font-weight="normal" text-decoration="normal" x="77" y="12" text-anchor="middle" dominant-baseline="alphabetic" stroke-miterlimit="10" stroke-dasharray="">      HOA Approval      </text></g><g><path fill="none" stroke="black" id="_D283245E-7D86-45B6-9823-7A3E526E3936undefined" paint-order="fill stroke markers" d=" M 0 0 L 0 0" stroke-miterlimit="10" stroke-opacity="0.1" stroke-dasharray=""/></g></g></g><g id="_AE1EF0FE-A96B-40F1-93C7-337C73EA75FD" bpmn2nodeid="_AE1EF0FE-A96B-40F1-93C7-337C73EA75FD" transform="matrix(1,0,0,1,61,239)"><g><path fill="none" stroke="none"/></g><g transform="matrix(0.125,0,0,0.125,0,0)"><g transform="matrix(1,0,0,1,0,0)"><path fill="#e8fae6" stroke="none" id="_AE1EF0FE-A96B-40F1-93C7-337C73EA75FD?shapeType=BACKGROUND" paint-order="stroke fill markers" d=" M 0 0 M 444 224 C 444 263.9 434.2 300.8 414.4 334.5 C 394.7 368.2 368 394.9 334.4 414.5 C 300.79999999999995 434.1 263.9 444 224 444 C 184.10000000000002 444 147.2 434.2 113.5 414.4 C 79.8 394.7 53.1 368 33.5 334.4 C 13.899999999999999 300.79999999999995 4 263.9 4 224 C 4 184.10000000000002 13.8 147.2 33.6 113.5 C 53.400000000000006 79.80000000000001 80.1 53.1 113.6 33.5 C 147.1 13.899999999999999 184.1 4 224 4 C 263.9 4 300.8 13.8 334.5 33.6 C 368.2 53.400000000000006 394.9 80.1 414.5 113.6 C 434.1 147.1 444 184.1 444 224 Z"/></g><g><g transform="matrix(1,0,0,1,0,0)"><g transform="matrix(1,0,0,1,0,0)"><path fill="#4aa241" stroke="none" id="_AE1EF0FE-A96B-40F1-93C7-337C73EA75FD?shapeType=BORDER&amp;renderType=FILL" paint-order="stroke fill markers" d=" M 0 0 M 224 0 C 100.3 0 0 100.3 0 224 C 0 347.7 100.3 448 224 448 C 347.7 448 448 347.7 448 224 C 448 100.30000000000001 347.7 0 224 0 Z M 0 0 M 224 432 C 109.1 432 16 338.9 16 224 C 16 109.10000000000002 109.1 16 224 16 C 338.9 16 432 109.1 432 224 C 432 338.9 338.9 432 224 432 Z"/></g></g></g></g><g transform="matrix(1,0,0,1,0,56)"><g/><g><path fill="none" stroke="black" id="_AE1EF0FE-A96B-40F1-93C7-337C73EA75FDundefined" paint-order="fill stroke markers" d=" M 0 0 L 0 0" stroke-miterlimit="10" stroke-opacity="0.1" stroke-dasharray=""/></g></g></g><g id="_E63C62F8-DFF3-4277-842E-A77A82832590" bpmn2nodeid="_E63C62F8-DFF3-4277-842E-A77A82832590" transform="matrix(1,0,0,1,952,319)"><g><path fill="none" stroke="none"/></g><g transform="matrix(1,0,0,1,0,0)"><path fill="#ffffff" stroke="none" id="_E63C62F8-DFF3-4277-842E-A77A82832590?shapeType=BACKGROUND" paint-order="stroke fill markers" d=" M 2 0 L 152 0 L 152 0 A 2 2 0 0 1 154 2 L 154 100 L 154 100 A 2 2 0 0 1 152 102 L 2 102 L 2 102 A 2 2 0 0 1 0 100 L 0 2 L 0 2.0000000000000004 A 2 2 0 0 1 1.9999999999999996 0 Z"/></g><g transform="matrix(1,0,0,1,0,0)"><path fill="none" stroke="#000000" id="_E63C62F8-DFF3-4277-842E-A77A82832590?shapeType=BORDER&amp;renderType=STROKE" paint-order="fill stroke markers" d=" M 2 0 L 152 0 L 152 0 A 2 2 0 0 1 154 2 L 154 100 L 154 100 A 2 2 0 0 1 152 102 L 2 102 L 2 102 A 2 2 0 0 1 0 100 L 0 2 L 0 2.0000000000000004 A 2 2 0 0 1 1.9999999999999996 0 Z" stroke-miterlimit="10" stroke-width="1.5" stroke-dasharray=""/></g><g><g transform="matrix(0.06,0,0,0.06,9.4,9.4)"><g transform="matrix(1,0,0,1,0,0)"><path fill="#393f44" stroke="none" id="_E63C62F8-DFF3-4277-842E-A77A82832590undefined" paint-order="stroke fill markers" d=" M 0 0 M 197.3 130.2 C 194.4 127.29999999999998 189.60000000000002 127.29999999999998 186.70000000000002 130.2 L 130.20000000000002 186.7 C 127.30000000000001 189.6 127.30000000000001 194.39999999999998 130.20000000000002 197.29999999999998 L 186.70000000000002 253.79999999999998 C 188.10000000000002 255.29999999999998 190.10000000000002 255.99999999999997 192.00000000000003 255.99999999999997 C 193.90000000000003 255.99999999999997 195.90000000000003 255.29999999999998 197.30000000000004 253.69999999999996 C 200.20000000000005 250.79999999999995 200.20000000000005 245.99999999999997 197.30000000000004 243.09999999999997 L 146.2 192 L 197.29999999999998 140.8 C 200.2 137.9 200.2 133.1 197.3 130.2 Z"/></g><g transform="matrix(1,0,0,1,0,0)"><path fill="#393f44" stroke="none" id="_E63C62F8-DFF3-4277-842E-A77A82832590undefined" paint-order="stroke fill markers" d=" M 0 0 M 261.3 130.2 C 258.40000000000003 127.29999999999998 253.60000000000002 127.29999999999998 250.70000000000002 130.2 C 247.8 133.1 247.8 137.89999999999998 250.70000000000002 140.79999999999998 L 301.8 191.89999999999998 L 250.7 243 C 247.79999999999998 245.9 247.79999999999998 250.7 250.7 253.6 C 252.1 255.29999999999998 254.1 256 256 256 C 257.9 256 259.9 255.3 261.3 253.8 L 317.8 197.3 C 320.7 194.4 320.7 189.60000000000002 317.8 186.70000000000002 L 261.3 130.2 Z"/></g><g transform="matrix(1,0,0,1,0,0)"><path fill="#393f44" stroke="none" id="_E63C62F8-DFF3-4277-842E-A77A82832590undefined" paint-order="stroke fill markers" d=" M 0 0 M 400 32 C 400 32 152.8 32 128 32 C 62 32 64 96 64 96 L 64 288 L 1 288 C 1 288 -4 416 78 416 L 320 416 C 368 416 384 368 384 336 C 384 314.2 384 224.4 384 160 L 448 160 L 448 96 C 448 96 449 32 400 32 Z M 0 0 M 78 383.9 C 68.5 383.9 61.6 381.09999999999997 55.5 374.9 C 43.4 362.4 37.5 339.59999999999997 34.9 320 L 256.9 320 C 257.09999999999997 322.7 257.29999999999995 325.4 257.59999999999997 328.2 C 259.99999999999994 351.59999999999997 264.7 370.09999999999997 271.9 383.9 L 78 383.9 L 78 383.9 Z M 0 0 M 352 336 C 352 345.9 349.6 360.3 342.9 371 C 337.2 380.1 330.4 384 320 384 C 285 384 288 288 288 288 L 96 288 L 96 96 L 96 95.9 L 96 95.10000000000001 C 96 90.60000000000001 97.6 78.30000000000001 104.7 71.20000000000002 C 106.5 69.40000000000002 111.9 64.00000000000001 128 64.00000000000001 L 356.5 64.00000000000001 C 354.4 72.80000000000001 352.8 81.80000000000001 352.2 89.9 C 352.2 90.5 352.09999999999997 91.10000000000001 352.09999999999997 91.7 C 352.09999999999997 92 352.09999999999997 92.3 352.09999999999997 92.60000000000001 C 352 94.8 352 96 352 96 L 352 160 L 352 336 Z"/></g></g></g><g transform="matrix(1,0,0,1,0,43.5)"><g><text fill="#000000" stroke="none" font-family="Open Sans" font-size="12pt" font-style="normal" font-weight="normal" text-decoration="normal" x="77" y="12" text-anchor="middle" dominant-baseline="alphabetic" id="_E63C62F8-DFF3-4277-842E-A77A82832590undefined">    Electrical Permit    </text><path fill="none" stroke="none"/><text fill="none" stroke="#393f44" font-family="Open Sans" font-size="12pt" font-style="normal" font-weight="normal" text-decoration="normal" x="77" y="12" text-anchor="middle" dominant-baseline="alphabetic" stroke-miterlimit="10" stroke-dasharray="">    Electrical Permit    </text></g><g><path fill="none" stroke="black" id="_E63C62F8-DFF3-4277-842E-A77A82832590undefined" paint-order="fill stroke markers" d=" M 0 0 L 0 0" stroke-miterlimit="10" stroke-opacity="0.1" stroke-dasharray=""/></g></g></g><g id="_2C1AE635-C2C4-4226-ADE0-3989493DC7A0" bpmn2nodeid="_2C1AE635-C2C4-4226-ADE0-3989493DC7A0" transform="matrix(1,0,0,1,163,216)"><g><path fill="none" stroke="none"/></g><g transform="matrix(1,0,0,1,0,0)"><path fill="#ffffff" stroke="none" id="_2C1AE635-C2C4-4226-ADE0-3989493DC7A0?shapeType=BACKGROUND" paint-order="stroke fill markers" d=" M 2 0 L 152 0 L 152 0 A 2 2 0 0 1 154 2 L 154 100 L 154 100 A 2 2 0 0 1 152 102 L 2 102 L 2 102 A 2 2 0 0 1 0 100 L 0 2 L 0 2.0000000000000004 A 2 2 0 0 1 1.9999999999999996 0 Z"/></g><g transform="matrix(1,0,0,1,0,0)"><path fill="none" stroke="#000000" id="_2C1AE635-C2C4-4226-ADE0-3989493DC7A0?shapeType=BORDER&amp;renderType=STROKE" paint-order="fill stroke markers" d=" M 2 0 L 152 0 L 152 0 A 2 2 0 0 1 154 2 L 154 100 L 154 100 A 2 2 0 0 1 152 102 L 2 102 L 2 102 A 2 2 0 0 1 0 100 L 0 2 L 0 2.0000000000000004 A 2 2 0 0 1 1.9999999999999996 0 Z" stroke-miterlimit="10" stroke-width="1.5" stroke-dasharray=""/></g><g><g transform="matrix(0.06,0,0,0.06,9.4,9.4)"><g transform="matrix(1,0,0,1,0,0)"><path fill="#393f44" stroke="none" id="_2C1AE635-C2C4-4226-ADE0-3989493DC7A0undefined" paint-order="stroke fill markers" d=" M 0 0 M 197.3 130.2 C 194.4 127.29999999999998 189.60000000000002 127.29999999999998 186.70000000000002 130.2 L 130.20000000000002 186.7 C 127.30000000000001 189.6 127.30000000000001 194.39999999999998 130.20000000000002 197.29999999999998 L 186.70000000000002 253.79999999999998 C 188.10000000000002 255.29999999999998 190.10000000000002 255.99999999999997 192.00000000000003 255.99999999999997 C 193.90000000000003 255.99999999999997 195.90000000000003 255.29999999999998 197.30000000000004 253.69999999999996 C 200.20000000000005 250.79999999999995 200.20000000000005 245.99999999999997 197.30000000000004 243.09999999999997 L 146.2 192 L 197.29999999999998 140.8 C 200.2 137.9 200.2 133.1 197.3 130.2 Z"/></g><g transform="matrix(1,0,0,1,0,0)"><path fill="#393f44" stroke="none" id="_2C1AE635-C2C4-4226-ADE0-3989493DC7A0undefined" paint-order="stroke fill markers" d=" M 0 0 M 261.3 130.2 C 258.40000000000003 127.29999999999998 253.60000000000002 127.29999999999998 250.70000000000002 130.2 C 247.8 133.1 247.8 137.89999999999998 250.70000000000002 140.79999999999998 L 301.8 191.89999999999998 L 250.7 243 C 247.79999999999998 245.9 247.79999999999998 250.7 250.7 253.6 C 252.1 255.29999999999998 254.1 256 256 256 C 257.9 256 259.9 255.3 261.3 253.8 L 317.8 197.3 C 320.7 194.4 320.7 189.60000000000002 317.8 186.70000000000002 L 261.3 130.2 Z"/></g><g transform="matrix(1,0,0,1,0,0)"><path fill="#393f44" stroke="none" id="_2C1AE635-C2C4-4226-ADE0-3989493DC7A0undefined" paint-order="stroke fill markers" d=" M 0 0 M 400 32 C 400 32 152.8 32 128 32 C 62 32 64 96 64 96 L 64 288 L 1 288 C 1 288 -4 416 78 416 L 320 416 C 368 416 384 368 384 336 C 384 314.2 384 224.4 384 160 L 448 160 L 448 96 C 448 96 449 32 400 32 Z M 0 0 M 78 383.9 C 68.5 383.9 61.6 381.09999999999997 55.5 374.9 C 43.4 362.4 37.5 339.59999999999997 34.9 320 L 256.9 320 C 257.09999999999997 322.7 257.29999999999995 325.4 257.59999999999997 328.2 C 259.99999999999994 351.59999999999997 264.7 370.09999999999997 271.9 383.9 L 78 383.9 L 78 383.9 Z M 0 0 M 352 336 C 352 345.9 349.6 360.3 342.9 371 C 337.2 380.1 330.4 384 320 384 C 285 384 288 288 288 288 L 96 288 L 96 96 L 96 95.9 L 96 95.10000000000001 C 96 90.60000000000001 97.6 78.30000000000001 104.7 71.20000000000002 C 106.5 69.40000000000002 111.9 64.00000000000001 128 64.00000000000001 L 356.5 64.00000000000001 C 354.4 72.80000000000001 352.8 81.80000000000001 352.2 89.9 C 352.2 90.5 352.09999999999997 91.10000000000001 352.09999999999997 91.7 C 352.09999999999997 92 352.09999999999997 92.3 352.09999999999997 92.60000000000001 C 352 94.8 352 96 352 96 L 352 160 L 352 336 Z"/></g></g></g><g transform="matrix(1,0,0,1,0,43.5)"><g><text fill="#000000" stroke="none" font-family="Open Sans" font-size="12pt" font-style="normal" font-weight="normal" text-decoration="normal" x="77" y="12" text-anchor="middle" dominant-baseline="alphabetic" id="_2C1AE635-C2C4-4226-ADE0-3989493DC7A0undefined">        New Order         </text><path fill="none" stroke="none"/><text fill="none" stroke="#393f44" font-family="Open Sans" font-size="12pt" font-style="normal" font-weight="normal" text-decoration="normal" x="77" y="12" text-anchor="middle" dominant-baseline="alphabetic" stroke-miterlimit="10" stroke-dasharray="">        New Order         </text></g><g><path fill="none" stroke="black" id="_2C1AE635-C2C4-4226-ADE0-3989493DC7A0undefined" paint-order="fill stroke markers" d=" M 0 0 L 0 0" stroke-miterlimit="10" stroke-opacity="0.1" stroke-dasharray=""/></g></g></g><g id="_6EA68AD4-B78E-4318-824F-124D93E9C399" bpmn2nodeid="_6EA68AD4-B78E-4318-824F-124D93E9C399" transform="matrix(1,0,0,1,740,239)"><g><path fill="none" stroke="none"/></g><g transform="matrix(0.125,0,0,0.125,0,0)"><g transform="matrix(1,0,0,1,0,0)"><path fill="#fef4ea" stroke="none" id="_6EA68AD4-B78E-4318-824F-124D93E9C399?shapeType=BACKGROUND" paint-order="stroke fill markers" d=" M 0 0 M 224.4 4.3 C 216.4 4.3 208.4 7.3 202.3 13.399999999999999 L 13.5 202.2 C 1.3000000000000007 214.39999999999998 1.3000000000000007 234.2 13.5 246.39999999999998 L 202.2 435.09999999999997 C 208.29999999999998 441.2 216.39999999999998 444.2 224.29999999999998 444.2 C 232.2 444.2 240.29999999999998 441.2 246.39999999999998 435.09999999999997 L 435.09999999999997 246.39999999999998 C 447.29999999999995 234.2 447.29999999999995 214.39999999999998 435.09999999999997 202.2 L 246.5 13.4 C 240.4 7.3 232.4 4.3 224.4 4.3 L 224.4 4.3 Z"/></g><g><g transform="matrix(1,0,0,1,0,0)"><g transform="matrix(1,0,0,1,0,0)"><path fill="#ec7a08" stroke="none" id="_6EA68AD4-B78E-4318-824F-124D93E9C399?shapeType=BORDER&amp;renderType=FILL" paint-order="stroke fill markers" d=" M 0 0 M 20.8 212.7 L 213.3 20.2 C 219.60000000000002 13.899999999999999 229.70000000000002 13.899999999999999 235.9 20.2 L 428.4 212.7 C 434.7 219 434.7 229.1 428.4 235.29999999999998 L 235.9 427.8 C 229.6 434.1 219.5 434.1 213.3 427.8 L 20.8 235.3 C 14.5 229.1 14.5 218.9 20.8 212.7 L 20.8 212.7 Z M 0 0 M 0 224 C 0 232.1 3.1 240.3 9.3 246.5 L 201.5 438.7 C 213.9 451.09999999999997 234.1 451.09999999999997 246.5 438.7 L 438.7 246.5 C 444.9 240.3 448 232.1 448 224 C 448 215.9 444.9 207.7 438.7 201.5 L 246.5 9.3 C 234.1 -3.0999999999999996 213.9 -3.0999999999999996 201.5 9.3 L 9.3 201.5 C 3.1 207.7 0 215.9 0 224 L 0 224 Z"/></g></g></g><g><g transform="matrix(1,0,0,1,0,0)"><g transform="matrix(1,0,0,1,0,0)"><path fill="#ec7a08" stroke="none" id="_6EA68AD4-B78E-4318-824F-124D93E9C399undefined" paint-order="stroke fill markers" d=" M 0 0 M 298.2 269.2 C 298.2 272.59999999999997 297.09999999999997 275.3 294.7 277.7 L 277.7 294.7 C 275.3 297.09999999999997 272.59999999999997 298.2 269.2 298.2 C 265.8 298.2 263.09999999999997 297.09999999999997 260.7 294.7 L 224 258 L 187.2 294.8 C 184.79999999999998 297.2 182.1 298.3 178.7 298.3 C 175.29999999999998 298.3 172.6 297.2 170.2 294.8 L 153.2 277.8 C 150.79999999999998 275.40000000000003 149.7 272.7 149.7 269.3 C 149.7 265.90000000000003 150.79999999999998 263.2 153.2 260.8 L 190 224 L 153.2 187.2 C 150.79999999999998 184.79999999999998 149.7 182 149.7 178.7 C 149.7 175.29999999999998 150.79999999999998 172.5 153.2 170.2 L 170.2 153.2 C 172.6 150.79999999999998 175.29999999999998 149.7 178.7 149.7 C 182.1 149.7 184.79999999999998 150.79999999999998 187.2 153.2 L 224 190 L 260.8 153.2 C 263.2 150.79999999999998 265.90000000000003 149.7 269.3 149.7 C 272.7 149.7 275.40000000000003 150.79999999999998 277.8 153.2 L 294.8 170.2 C 297.2 172.5 298.3 175.29999999999998 298.3 178.7 C 298.3 182 297.2 184.79999999999998 294.8 187.2 L 258 224 L 294.8 260.8 C 297.1 263.1 298.2 265.9 298.2 269.2 Z"/></g></g></g></g><g transform="matrix(1,0,0,1,0,28)"><g/><g><path fill="none" stroke="black" id="_6EA68AD4-B78E-4318-824F-124D93E9C399undefined" paint-order="fill stroke markers" d=" M 0 0 L 0 0" stroke-miterlimit="10" stroke-opacity="0.1" stroke-dasharray=""/></g></g></g><g id="_678083BD-5084-41F4-A894-DBF5AA52EC85" bpmn2nodeid="_678083BD-5084-41F4-A894-DBF5AA52EC85" transform="matrix(1,0,0,1,952,123)"><g><path fill="none" stroke="none"/></g><g transform="matrix(1,0,0,1,0,0)"><path fill="#ffffff" stroke="none" id="_678083BD-5084-41F4-A894-DBF5AA52EC85?shapeType=BACKGROUND" paint-order="stroke fill markers" d=" M 2 0 L 152 0 L 152 0 A 2 2 0 0 1 154 2 L 154 100 L 154 100 A 2 2 0 0 1 152 102 L 2 102 L 2 102 A 2 2 0 0 1 0 100 L 0 2 L 0 2.0000000000000004 A 2 2 0 0 1 1.9999999999999996 0 Z"/></g><g transform="matrix(1,0,0,1,0,0)"><path fill="none" stroke="#000000" id="_678083BD-5084-41F4-A894-DBF5AA52EC85?shapeType=BORDER&amp;renderType=STROKE" paint-order="fill stroke markers" d=" M 2 0 L 152 0 L 152 0 A 2 2 0 0 1 154 2 L 154 100 L 154 100 A 2 2 0 0 1 152 102 L 2 102 L 2 102 A 2 2 0 0 1 0 100 L 0 2 L 0 2.0000000000000004 A 2 2 0 0 1 1.9999999999999996 0 Z" stroke-miterlimit="10" stroke-width="1.5" stroke-dasharray=""/></g><g><g transform="matrix(0.06,0,0,0.06,9.4,9.4)"><g transform="matrix(1,0,0,1,0,0)"><path fill="#393f44" stroke="none" id="_678083BD-5084-41F4-A894-DBF5AA52EC85undefined" paint-order="stroke fill markers" d=" M 0 0 M 197.3 130.2 C 194.4 127.29999999999998 189.60000000000002 127.29999999999998 186.70000000000002 130.2 L 130.20000000000002 186.7 C 127.30000000000001 189.6 127.30000000000001 194.39999999999998 130.20000000000002 197.29999999999998 L 186.70000000000002 253.79999999999998 C 188.10000000000002 255.29999999999998 190.10000000000002 255.99999999999997 192.00000000000003 255.99999999999997 C 193.90000000000003 255.99999999999997 195.90000000000003 255.29999999999998 197.30000000000004 253.69999999999996 C 200.20000000000005 250.79999999999995 200.20000000000005 245.99999999999997 197.30000000000004 243.09999999999997 L 146.2 192 L 197.29999999999998 140.8 C 200.2 137.9 200.2 133.1 197.3 130.2 Z"/></g><g transform="matrix(1,0,0,1,0,0)"><path fill="#393f44" stroke="none" id="_678083BD-5084-41F4-A894-DBF5AA52EC85undefined" paint-order="stroke fill markers" d=" M 0 0 M 261.3 130.2 C 258.40000000000003 127.29999999999998 253.60000000000002 127.29999999999998 250.70000000000002 130.2 C 247.8 133.1 247.8 137.89999999999998 250.70000000000002 140.79999999999998 L 301.8 191.89999999999998 L 250.7 243 C 247.79999999999998 245.9 247.79999999999998 250.7 250.7 253.6 C 252.1 255.29999999999998 254.1 256 256 256 C 257.9 256 259.9 255.3 261.3 253.8 L 317.8 197.3 C 320.7 194.4 320.7 189.60000000000002 317.8 186.70000000000002 L 261.3 130.2 Z"/></g><g transform="matrix(1,0,0,1,0,0)"><path fill="#393f44" stroke="none" id="_678083BD-5084-41F4-A894-DBF5AA52EC85undefined" paint-order="stroke fill markers" d=" M 0 0 M 400 32 C 400 32 152.8 32 128 32 C 62 32 64 96 64 96 L 64 288 L 1 288 C 1 288 -4 416 78 416 L 320 416 C 368 416 384 368 384 336 C 384 314.2 384 224.4 384 160 L 448 160 L 448 96 C 448 96 449 32 400 32 Z M 0 0 M 78 383.9 C 68.5 383.9 61.6 381.09999999999997 55.5 374.9 C 43.4 362.4 37.5 339.59999999999997 34.9 320 L 256.9 320 C 257.09999999999997 322.7 257.29999999999995 325.4 257.59999999999997 328.2 C 259.99999999999994 351.59999999999997 264.7 370.09999999999997 271.9 383.9 L 78 383.9 L 78 383.9 Z M 0 0 M 352 336 C 352 345.9 349.6 360.3 342.9 371 C 337.2 380.1 330.4 384 320 384 C 285 384 288 288 288 288 L 96 288 L 96 96 L 96 95.9 L 96 95.10000000000001 C 96 90.60000000000001 97.6 78.30000000000001 104.7 71.20000000000002 C 106.5 69.40000000000002 111.9 64.00000000000001 128 64.00000000000001 L 356.5 64.00000000000001 C 354.4 72.80000000000001 352.8 81.80000000000001 352.2 89.9 C 352.2 90.5 352.09999999999997 91.10000000000001 352.09999999999997 91.7 C 352.09999999999997 92 352.09999999999997 92.3 352.09999999999997 92.60000000000001 C 352 94.8 352 96 352 96 L 352 160 L 352 336 Z"/></g></g></g><g transform="matrix(1,0,0,1,0,43.5)"><g><text fill="#000000" stroke="none" font-family="Open Sans" font-size="12pt" font-style="normal" font-weight="normal" text-decoration="normal" x="77" y="12" text-anchor="middle" dominant-baseline="alphabetic" id="_678083BD-5084-41F4-A894-DBF5AA52EC85undefined">   Structural Permit    </text><path fill="none" stroke="none"/><text fill="none" stroke="#393f44" font-family="Open Sans" font-size="12pt" font-style="normal" font-weight="normal" text-decoration="normal" x="77" y="12" text-anchor="middle" dominant-baseline="alphabetic" stroke-miterlimit="10" stroke-dasharray="">   Structural Permit    </text></g><g><path fill="none" stroke="black" id="_678083BD-5084-41F4-A894-DBF5AA52EC85undefined" paint-order="fill stroke markers" d=" M 0 0 L 0 0" stroke-miterlimit="10" stroke-opacity="0.1" stroke-dasharray=""/></g></g></g><g id="_1927B74F-99AE-49E9-BB06-B9C9F1591F87" bpmn2nodeid="_1927B74F-99AE-49E9-BB06-B9C9F1591F87" transform="matrix(1,0,0,1,740,53)"><g><path fill="none" stroke="none"/></g><g transform="matrix(0.125,0,0,0.125,0,0)"><g transform="matrix(1,0,0,1,0,0)"><path fill="#fce7e7" stroke="none" id="_1927B74F-99AE-49E9-BB06-B9C9F1591F87?shapeType=BACKGROUND" paint-order="stroke fill markers" d=" M 0 0 M 444 224 C 444 263.9 434.2 300.8 414.4 334.5 C 394.7 368.2 368 394.9 334.4 414.5 C 300.79999999999995 434.1 263.9 444 224 444 C 184.10000000000002 444 147.2 434.2 113.5 414.4 C 79.8 394.7 53.1 368 33.5 334.4 C 13.899999999999999 300.79999999999995 4 263.9 4 224 C 4 184.10000000000002 13.8 147.2 33.6 113.5 C 53.400000000000006 79.80000000000001 80.1 53.1 113.6 33.5 C 147.1 13.899999999999999 184.1 4 224 4 C 263.9 4 300.8 13.8 334.5 33.6 C 368.2 53.400000000000006 394.9 80.1 414.5 113.6 C 434.1 147.1 444 184.1 444 224 Z"/></g><g><g transform="matrix(1,0,0,1,0,0)"><g transform="matrix(1,0,0,1,0,0)"><path fill="#a30000" stroke="none" id="_1927B74F-99AE-49E9-BB06-B9C9F1591F87?shapeType=BORDER&amp;renderType=FILL" paint-order="stroke fill markers" d=" M 0 0 M 224 0 C 100.3 0 0 100.3 0 224 C 0 347.7 100.3 448 224 448 C 347.7 448 448 347.7 448 224 C 448 100.30000000000001 347.7 0 224 0 Z M 0 0 M 224 400 C 126.8 400 48 321.2 48 224 C 48 126.80000000000001 126.8 48 224 48 C 321.2 48 400 126.8 400 224 C 400 321.2 321.2 400 224 400 Z"/></g></g></g></g><g transform="matrix(1,0,0,1,0,56)"><g/><g><path fill="none" stroke="black" id="_1927B74F-99AE-49E9-BB06-B9C9F1591F87undefined" paint-order="fill stroke markers" d=" M 0 0 L 0 0" stroke-miterlimit="10" stroke-opacity="0.1" stroke-dasharray=""/></g></g></g><g id="_8E9D29DD-449D-457E-9FA2-69F19A9DBE95" bpmn2nodeid="_8E9D29DD-449D-457E-9FA2-69F19A9DBE95" transform="matrix(1,0,0,1,879,239)"><g><path fill="none" stroke="none"/></g><g transform="matrix(0.125,0,0,0.125,0,0)"><g transform="matrix(1,0,0,1,0,0)"><path fill="#fef4ea" stroke="none" id="_8E9D29DD-449D-457E-9FA2-69F19A9DBE95?shapeType=BACKGROUND" paint-order="stroke fill markers" d=" M 0 0 M 224.4 4.3 C 216.4 4.3 208.4 7.3 202.3 13.399999999999999 L 13.5 202.2 C 1.3000000000000007 214.39999999999998 1.3000000000000007 234.2 13.5 246.39999999999998 L 202.2 435.09999999999997 C 208.29999999999998 441.2 216.39999999999998 444.2 224.29999999999998 444.2 C 232.2 444.2 240.29999999999998 441.2 246.39999999999998 435.09999999999997 L 435.09999999999997 246.39999999999998 C 447.29999999999995 234.2 447.29999999999995 214.39999999999998 435.09999999999997 202.2 L 246.5 13.4 C 240.4 7.3 232.4 4.3 224.4 4.3 L 224.4 4.3 Z"/></g><g><g transform="matrix(1,0,0,1,0,0)"><g transform="matrix(1,0,0,1,0,0)"><path fill="#ec7a08" stroke="none" id="_8E9D29DD-449D-457E-9FA2-69F19A9DBE95?shapeType=BORDER&amp;renderType=FILL" paint-order="stroke fill markers" d=" M 0 0 M 20.8 212.7 L 213.3 20.2 C 219.60000000000002 13.899999999999999 229.70000000000002 13.899999999999999 235.9 20.2 L 428.4 212.7 C 434.7 219 434.7 229.1 428.4 235.29999999999998 L 235.9 427.8 C 229.6 434.1 219.5 434.1 213.3 427.8 L 20.8 235.3 C 14.5 229.1 14.5 218.9 20.8 212.7 L 20.8 212.7 Z M 0 0 M 0 224 C 0 232.1 3.1 240.3 9.3 246.5 L 201.5 438.7 C 213.9 451.09999999999997 234.1 451.09999999999997 246.5 438.7 L 438.7 246.5 C 444.9 240.3 448 232.1 448 224 C 448 215.9 444.9 207.7 438.7 201.5 L 246.5 9.3 C 234.1 -3.0999999999999996 213.9 -3.0999999999999996 201.5 9.3 L 9.3 201.5 C 3.1 207.7 0 215.9 0 224 L 0 224 Z"/></g></g></g><g><g transform="matrix(1,0,0,1,0,0)"><g transform="matrix(1,0,0,1,0,0)"><path fill="#ec7a08" stroke="none" id="_8E9D29DD-449D-457E-9FA2-69F19A9DBE95undefined" paint-order="stroke fill markers" d=" M 0 0 M 312 212 L 312 236 C 312 239.4 310.9 242.1 308.5 244.5 C 306.1 246.9 303.4 248 300 248 L 248 248 L 248 300 C 248 303.4 246.9 306.1 244.5 308.5 C 242.1 310.9 239.4 312 236 312 L 212 312 C 208.6 312 205.9 310.9 203.5 308.5 C 201.1 306.1 200 303.4 200 300 L 200 248 L 148 248 C 144.6 248 141.9 246.9 139.5 244.5 C 137.1 242.1 136 239.4 136 236 L 136 212 C 136 208.6 137.1 205.9 139.5 203.5 C 141.9 201.1 144.6 200 148 200 L 200 200 L 200 148 C 200 144.6 201.1 141.9 203.5 139.5 C 205.9 137.1 208.6 136 212 136 L 236 136 C 239.4 136 242.1 137.1 244.5 139.5 C 246.9 141.9 248 144.6 248 148 L 248 200 L 300 200 C 303.4 200 306.1 201.1 308.5 203.5 C 310.9 205.9 312 208.6 312 212 Z"/></g></g></g></g><g transform="matrix(1,0,0,1,0,28)"><g/><g><path fill="none" stroke="black" id="_8E9D29DD-449D-457E-9FA2-69F19A9DBE95undefined" paint-order="fill stroke markers" d=" M 0 0 L 0 0" stroke-miterlimit="10" stroke-opacity="0.1" stroke-dasharray=""/></g></g></g><g id="_FEC13EDE-8A94-4716-993D-5E63333779EF" bpmn2nodeid="_FEC13EDE-8A94-4716-993D-5E63333779EF"><g><path fill="none" stroke="#000000" paint-order="fill stroke markers" d=" M 117 267 L 148 267" stroke-miterlimit="10" stroke-dasharray=""/></g><g transform="matrix(1,0,0,1,117,267)"/><g transform="matrix(6.123233995736766e-17,1,-1,6.123233995736766e-17,163,262)"><path fill="#000000" stroke="#000000" paint-order="fill stroke markers" d=" M 10 15 L 0 15 L 5 0 Z" stroke-miterlimit="10" stroke-dasharray=""/></g></g><g id="_F63B28F8-E5EE-46D3-B9E8-2BDF35960D04" bpmn2nodeid="_F63B28F8-E5EE-46D3-B9E8-2BDF35960D04"><g><path fill="none" stroke="#000000" paint-order="fill stroke markers" d=" M 317 267 L 360 267" stroke-miterlimit="10" stroke-dasharray=""/></g><g transform="matrix(1,0,0,1,317,267)"/><g transform="matrix(6.123233995736766e-17,1,-1,6.123233995736766e-17,375,262)"><path fill="#000000" stroke="#000000" paint-order="fill stroke markers" d=" M 10 15 L 0 15 L 5 0 Z" stroke-miterlimit="10" stroke-dasharray=""/></g></g><g id="_1E8731EA-7D3A-43B5-9252-B38187F35383" bpmn2nodeid="_1E8731EA-7D3A-43B5-9252-B38187F35383"><g><path fill="none" stroke="#000000" paint-order="fill stroke markers" d=" M 403 239 L 403 174 L 440 174" stroke-miterlimit="10" stroke-dasharray=""/></g><g transform="matrix(1,0,0,1,403,239)"/><g transform="matrix(6.123233995736766e-17,1,-1,6.123233995736766e-17,455,169)"><path fill="#000000" stroke="#000000" paint-order="fill stroke markers" d=" M 10 15 L 0 15 L 5 0 Z" stroke-miterlimit="10" stroke-dasharray=""/></g></g><g id="_7FC8DF98-D60E-4FF3-AA97-B1057ED75449" bpmn2nodeid="_7FC8DF98-D60E-4FF3-AA97-B1057ED75449"><g><path fill="none" stroke="#000000" paint-order="fill stroke markers" d=" M 609 174 L 655 174 L 655 224" stroke-miterlimit="10" stroke-dasharray=""/></g><g transform="matrix(1,0,0,1,609,174)"/><g transform="matrix(-1,1.2246467991473532e-16,-1.2246467991473532e-16,-1,660,239)"><path fill="#000000" stroke="#000000" paint-order="fill stroke markers" d=" M 10 15 L 0 15 L 5 0 Z" stroke-miterlimit="10" stroke-dasharray=""/></g></g><g id="_59E51955-6C3F-479E-B2C5-016FD6BDA506" bpmn2nodeid="_59E51955-6C3F-479E-B2C5-016FD6BDA506"><g><path fill="none" stroke="#000000" paint-order="fill stroke markers" d=" M 683 267 L 725 267" stroke-miterlimit="10" stroke-dasharray=""/></g><g transform="matrix(1,0,0,1,683,267)"/><g transform="matrix(6.123233995736766e-17,1,-1,6.123233995736766e-17,740,262)"><path fill="#000000" stroke="#000000" paint-order="fill stroke markers" d=" M 10 15 L 0 15 L 5 0 Z" stroke-miterlimit="10" stroke-dasharray=""/></g></g><g id="_0B3E8462-1436-4385-935A-BE671D403ABB" bpmn2nodeid="_0B3E8462-1436-4385-935A-BE671D403ABB"><g><path fill="none" stroke="#000000" paint-order="fill stroke markers" d=" M 796 267 L 864 267" stroke-miterlimit="10" stroke-dasharray=""/></g><g transform="matrix(1,0,0,1,796,267)"/><g transform="matrix(6.123233995736766e-17,1,-1,6.123233995736766e-17,879,262)"><path fill="#000000" stroke="#000000" paint-order="fill stroke markers" d=" M 10 15 L 0 15 L 5 0 Z" stroke-miterlimit="10" stroke-dasharray=""/></g><g transform="matrix(1,0,0,1,796,244)"><text fill="#000000" stroke="none" font-family="Open Sans" font-size="10pt" font-style="normal" font-weight="normal" text-decoration="normal" x="0" y="10.4" text-anchor="start" dominant-baseline="alphabetic">Approved       </text><path fill="none" stroke="none"/><text fill="none" stroke="#393f44" font-family="Open Sans" font-size="10pt" font-style="normal" font-weight="normal" text-decoration="normal" x="0" y="10.4" text-anchor="start" dominant-baseline="alphabetic" stroke-miterlimit="10" stroke-dasharray="">Approved       </text></g></g><g id="_652A6485-D78E-43E0-99BA-4E3A0559275C" bpmn2nodeid="_652A6485-D78E-43E0-99BA-4E3A0559275C"><g><path fill="none" stroke="#000000" paint-order="fill stroke markers" d=" M 907 239 L 907 174 L 937 174" stroke-miterlimit="10" stroke-dasharray=""/></g><g transform="matrix(1,0,0,1,907,239)"/><g transform="matrix(6.123233995736766e-17,1,-1,6.123233995736766e-17,952,169)"><path fill="#000000" stroke="#000000" paint-order="fill stroke markers" d=" M 10 15 L 0 15 L 5 0 Z" stroke-miterlimit="10" stroke-dasharray=""/></g></g><g id="_4F8A366C-7BA9-4A12-A1B7-33CC7AA1B108" bpmn2nodeid="_4F8A366C-7BA9-4A12-A1B7-33CC7AA1B108"><g><path fill="none" stroke="#000000" paint-order="fill stroke markers" d=" M 1106 174 L 1150 174 L 1150 224" stroke-miterlimit="10" stroke-dasharray=""/></g><g transform="matrix(1,0,0,1,1106,174)"/><g transform="matrix(-1,1.2246467991473532e-16,-1.2246467991473532e-16,-1,1155,239)"><path fill="#000000" stroke="#000000" paint-order="fill stroke markers" d=" M 10 15 L 0 15 L 5 0 Z" stroke-miterlimit="10" stroke-dasharray=""/></g></g><g id="_9648ED38-65CA-42C8-A696-CB07BA6B6FDA" bpmn2nodeid="_9648ED38-65CA-42C8-A696-CB07BA6B6FDA"><g><path fill="none" stroke="#000000" paint-order="fill stroke markers" d=" M 1178 267 L 1240 267" stroke-miterlimit="10" stroke-dasharray=""/></g><g transform="matrix(1,0,0,1,1178,267)"/><g transform="matrix(6.123233995736766e-17,1,-1,6.123233995736766e-17,1255,262)"><path fill="#000000" stroke="#000000" paint-order="fill stroke markers" d=" M 10 15 L 0 15 L 5 0 Z" stroke-miterlimit="10" stroke-dasharray=""/></g></g><g id="_0302CC1D-67C5-41DF-B5DA-0FF1DB3E8DFC" bpmn2nodeid="_0302CC1D-67C5-41DF-B5DA-0FF1DB3E8DFC"><g><path fill="none" stroke="#000000" paint-order="fill stroke markers" d=" M 907 295 L 907 370 L 937 370" stroke-miterlimit="10" stroke-dasharray=""/></g><g transform="matrix(1,0,0,1,907,295)"/><g transform="matrix(6.123233995736766e-17,1,-1,6.123233995736766e-17,952,365)"><path fill="#000000" stroke="#000000" paint-order="fill stroke markers" d=" M 10 15 L 0 15 L 5 0 Z" stroke-miterlimit="10" stroke-dasharray=""/></g></g><g id="_54C0ADA9-4A54-44AC-B4F2-1C013C03B5C5" bpmn2nodeid="_54C0ADA9-4A54-44AC-B4F2-1C013C03B5C5"><g><path fill="none" stroke="#000000" paint-order="fill stroke markers" d=" M 1106 370 L 1150 370 L 1150 310" stroke-miterlimit="10" stroke-dasharray=""/></g><g transform="matrix(1,0,0,1,1106,370)"/><g transform="matrix(1,0,0,1,1145,295)"><path fill="#000000" stroke="#000000" paint-order="fill stroke markers" d=" M 10 15 L 0 15 L 5 0 Z" stroke-miterlimit="10" stroke-dasharray=""/></g></g><g id="_C9AA74E1-FE80-42E6-8C2D-E3B07FD6B6E5" bpmn2nodeid="_C9AA74E1-FE80-42E6-8C2D-E3B07FD6B6E5"><g><path fill="none" stroke="#000000" paint-order="fill stroke markers" d=" M 768 239 L 768 124" stroke-miterlimit="10" stroke-dasharray=""/></g><g transform="matrix(1,0,0,1,768,239)"/><g transform="matrix(1,0,0,1,763,109)"><path fill="#000000" stroke="#000000" paint-order="fill stroke markers" d=" M 10 15 L 0 15 L 5 0 Z" stroke-miterlimit="10" stroke-dasharray=""/></g><g transform="matrix(1,0,0,1,778,161)"><text fill="#000000" stroke="none" font-family="Open Sans" font-size="10pt" font-style="normal" font-weight="normal" text-decoration="normal" x="0" y="10.4" text-anchor="start" dominant-baseline="alphabetic">Denied                         </text><path fill="none" stroke="none"/><text fill="none" stroke="#393f44" font-family="Open Sans" font-size="10pt" font-style="normal" font-weight="normal" text-decoration="normal" x="0" y="10.4" text-anchor="start" dominant-baseline="alphabetic" stroke-miterlimit="10" stroke-dasharray="">Denied                         </text></g></g><g id="_7EEAF8C1-FE10-403B-AC0B-FAF1F1112BFF" bpmn2nodeid="_7EEAF8C1-FE10-403B-AC0B-FAF1F1112BFF"><g><path fill="none" stroke="#000000" paint-order="fill stroke markers" d=" M 403 295 L 403 370 L 440 370" stroke-miterlimit="10" stroke-dasharray=""/></g><g transform="matrix(1,0,0,1,403,295)"/><g transform="matrix(6.123233995736766e-17,1,-1,6.123233995736766e-17,455,365)"><path fill="#000000" stroke="#000000" paint-order="fill stroke markers" d=" M 10 15 L 0 15 L 5 0 Z" stroke-miterlimit="10" stroke-dasharray=""/></g></g><g id="_2FF62839-112F-4050-BE50-CF9059171915" bpmn2nodeid="_2FF62839-112F-4050-BE50-CF9059171915"><g><path fill="none" stroke="#000000" paint-order="fill stroke markers" d=" M 609 370 L 655 370 L 655 310" stroke-miterlimit="10" stroke-dasharray=""/></g><g transform="matrix(1,0,0,1,609,370)"/><g transform="matrix(1,0,0,1,650,295)"><path fill="#000000" stroke="#000000" paint-order="fill stroke markers" d=" M 10 15 L 0 15 L 5 0 Z" stroke-miterlimit="10" stroke-dasharray=""/></g></g><g transform="matrix(1,0,0,1,375,239)"/><g transform="matrix(1,0,0,1,1122,239)"/><g transform="matrix(1,0,0,1,1255,239)"/><g transform="matrix(1,0,0,1,455,123)"/><g transform="matrix(1,0,0,1,627,239)"/><g transform="matrix(1,0,0,1,61,239)"/><g transform="matrix(1,0,0,1,952,319)"/><g transform="matrix(1,0,0,1,163,216)"/><g transform="matrix(1,0,0,1,740,239)"/><g transform="matrix(1,0,0,1,952,123)"/><g transform="matrix(1,0,0,1,740,53)"/><g transform="matrix(1,0,0,1,879,239)"/><g transform="matrix(1,0,0,1,455,319)"/></g></g></svg>